<?xml version="1.0" encoding="UTF-8"?>
<!DOCTYPE svg PUBLIC "-//W3C//DTD SVG 1.1//EN" "http://www.w3.org/Graphics/SVG/1.1/DTD/svg11.dtd">
<!-- Creator: CorelDRAW X8 -->
<svg xmlns="http://www.w3.org/2000/svg" xml:space="preserve" width="2.22555in" height="1.85706in" version="1.1" style="shape-rendering:geometricPrecision; text-rendering:geometricPrecision; image-rendering:optimizeQuality; fill-rule:evenodd; clip-rule:evenodd"
viewBox="0 0 2353 1963"
 xmlns:xlink="http://www.w3.org/1999/xlink">
 <defs>
  <style type="text/css">
   <![CDATA[
    .fil0 {fill:#183153}
    .fil1 {fill:#FEFEFE}
   ]]>
  </style>
 </defs>
 <g id="Layer_x0020_1">
  <metadata id="CorelCorpID_0Corel-Layer"/>
  <g id="_1143850775008">
   <path class="fil0" d="M1200 1830c-12,-24 -30,-42 -45,-67 -127,-204 -141,-469 -45,-684 107,-239 304,-365 554,-419l-1659 1c-9,193 -1,404 -1,599 0,193 -31,402 85,505 112,100 347,68 523,68 90,0 538,6 588,-3z"/>
   <path class="fil0" d="M1702 1438c104,-83 247,-268 310,-255 41,9 63,51 42,96 -9,18 -52,57 -68,73 -49,49 -91,91 -140,140 -31,31 -104,129 -164,110 -10,-3 -212,-167 -208,-228 2,-39 32,-68 78,-60 30,5 107,88 150,124zm-518 -13c26,178 98,320 199,397 455,350 1005,-2 968,-493 -13,-173 -104,-313 -197,-391 -179,-150 -431,-201 -662,-79 -202,106 -341,344 -308,566z"/>
   <path class="fil0" d="M9 526l839 1 2 -520c-91,-13 -249,-4 -343,-4 -119,0 -210,0 -270,72 -28,34 -211,395 -228,451z"/>
   <path class="fil0" d="M985 527l842 0 -229 -454c-50,-66 -162,-70 -271,-70 -101,0 -243,-8 -339,3l-3 521z"/>
   <path class="fil1" d="M1702 1438c-43,-36 -120,-119 -150,-124 -46,-8 -76,21 -78,60 -4,61 198,225 208,228 60,19 133,-79 164,-110 49,-49 91,-91 140,-140 16,-16 59,-55 68,-73 21,-45 -1,-87 -42,-96 -63,-13 -206,172 -310,255z"/>
  </g>
 </g>
</svg>
