<?xml version="1.0" encoding="UTF-8"?>
<!DOCTYPE svg PUBLIC "-//W3C//DTD SVG 1.1//EN" "http://www.w3.org/Graphics/SVG/1.1/DTD/svg11.dtd">
<!-- Creator: CorelDRAW X8 -->
<svg xmlns="http://www.w3.org/2000/svg" xml:space="preserve" width="1.82267in" height="2.41103in" version="1.1" style="shape-rendering:geometricPrecision; text-rendering:geometricPrecision; image-rendering:optimizeQuality; fill-rule:evenodd; clip-rule:evenodd"
viewBox="0 0 2336 3090"
 xmlns:xlink="http://www.w3.org/1999/xlink">
 <defs>
  <style type="text/css">
   <![CDATA[
    .fil0 {fill:#183153}
    .fil1 {fill:#83625C}
   ]]>
  </style>
 </defs>
 <g id="Layer_x0020_1">
  <metadata id="CorelCorpID_0Corel-Layer"/>
  <path class="fil0" d="M2036 870c21,18 15,-26 20,34l0 506c3,73 4,18 -15,37l-35 17c-19,4 -491,10 -536,-14 -22,-51 -17,-498 -4,-585l570 5zm-863 576l-205 5c-177,-245 -133,-680 -544,-680 -239,0 -419,90 -419,354l0 570c0,247 132,290 322,447l211 166c27,21 52,31 76,54 67,66 137,468 173,604 19,74 45,116 130,119 248,9 107,-351 65,-535 -75,-331 -58,-306 -290,-474 -30,-22 -49,-35 -76,-55 -41,-31 -37,-23 -37,-92l4 -608c34,29 94,199 117,253 43,100 85,166 216,166 215,0 1269,19 1394,-15 19,-40 26,-63 26,-120l0 -882c0,-194 -140,-149 -395,-149 -899,0 -766,-55 -766,330 0,175 8,370 -2,542z"/>
  <path class="fil0" d="M459 3c-400,71 -300,596 68,564 281,-23 311,-399 144,-506 -52,-34 -136,-72 -212,-58z"/>
  <path class="fil0" d="M5 2157c-1,111 -21,806 24,880 38,62 175,74 230,11 58,-68 31,-445 32,-562 2,-136 -19,-129 -102,-193 -53,-41 -145,-123 -184,-136z"/>
  <path class="fil1" d="M2041 1447l-571 3c45,24 517,18 536,14l35 -17c19,-19 18,36 15,-37l0 -506c-5,-60 1,-16 -20,-34l5 577z"/>
 </g>
</svg>
